<?xml version="1.0" encoding="utf-8"?>
<svg version="1.1"
	 id="Livello_1" xmlns:cc="http://creativecommons.org/ns#" xmlns:dc="http://purl.org/dc/elements/1.1/" xmlns:rdf="http://www.w3.org/1999/02/22-rdf-syntax-ns#"
	 xmlns="http://www.w3.org/2000/svg" xmlns:xlink="http://www.w3.org/1999/xlink" x="0px" y="0px" viewBox="0 0 740 280"
	 style="enable-background:new 0 0 740 280;" xml:space="preserve">
<style type="text/css">
	.st0{fill:#FF6635;}
	.st1{fill:#357EC0;}
	.st2{fill:#C8C8C8;}
</style>
<g>
	<path class="st0" d="M60.3,66.3c0,1.3-0.2,2.4-0.5,3.4c-0.3,1-0.8,1.9-1.3,2.7c-0.5,0.8-1.2,1.4-1.9,2c-0.7,0.5-1.5,1-2.2,1.3
		c-0.8,0.3-1.5,0.6-2.3,0.8c-0.8,0.2-1.5,0.2-2.2,0.2h-25v-6.5h25c1.2,0,2.2-0.4,2.9-1.1s1-1.7,1-2.9c0-0.6-0.1-1.1-0.3-1.6
		c-0.2-0.5-0.4-0.9-0.8-1.3c-0.3-0.4-0.8-0.6-1.2-0.8c-0.5-0.2-1-0.3-1.6-0.3H35c-1,0-2.2-0.2-3.4-0.6c-1.2-0.4-2.3-1-3.4-1.8
		c-1-0.8-1.9-1.9-2.6-3.3s-1-3-1-4.9s0.3-3.6,1-4.9s1.6-2.4,2.6-3.3c1-0.8,2.2-1.4,3.4-1.8c1.2-0.4,2.3-0.6,3.4-0.6h22v6.5H35
		c-1.2,0-2.2,0.4-2.9,1.1c-0.7,0.7-1,1.7-1,3c0,1.2,0.3,2.2,1,3c0.7,0.7,1.6,1.1,2.9,1.1h14.9h0c0.7,0,1.4,0.1,2.2,0.3
		c0.8,0.2,1.6,0.4,2.3,0.8c0.8,0.4,1.5,0.8,2.2,1.4c0.7,0.6,1.3,1.2,1.9,2c0.5,0.8,1,1.7,1.3,2.7C60.1,63.9,60.3,65,60.3,66.3z"/>
	<path class="st0" d="M71.5,76.8h-6.5V38.5h6.5V76.8z M94.9,76.8h-6.5V58.9c0-0.8-0.2-1.5-0.6-1.9c-0.4-0.4-1.1-0.7-1.9-0.7H74.1
		v-6.5h11.7c0.6,0,1.3,0.1,1.9,0.2c0.7,0.1,1.4,0.4,2,0.7c0.7,0.3,1.3,0.7,1.9,1.2c0.6,0.5,1.2,1,1.6,1.7c0.5,0.7,0.8,1.4,1.1,2.3
		c0.3,0.9,0.4,1.9,0.4,3V76.8z"/>
	<path class="st0" d="M130.1,67.7c0,1.1-0.1,2.1-0.4,3c-0.3,0.9-0.7,1.7-1.1,2.3c-0.5,0.7-1,1.2-1.6,1.7c-0.6,0.5-1.3,0.9-1.9,1.2
		c-0.7,0.3-1.4,0.5-2,0.7c-0.7,0.1-1.3,0.2-2,0.2h-11.7c-0.9,0-1.9-0.2-2.9-0.5c-1.1-0.3-2-0.8-3-1.6c-0.9-0.7-1.7-1.7-2.3-2.8
		c-0.6-1.2-0.9-2.6-0.9-4.2v-8.8c0-1.7,0.3-3.1,0.9-4.2c0.6-1.2,1.4-2.1,2.3-2.8c0.9-0.7,1.9-1.2,3-1.6c1.1-0.3,2-0.5,2.9-0.5H121
		c1.7,0,3.1,0.3,4.2,0.9c1.2,0.6,2.1,1.3,2.8,2.3c0.7,0.9,1.2,1.9,1.6,3c0.3,1.1,0.5,2.1,0.5,3V67.7z M123.6,59c0-0.9-0.2-1.6-0.7-2
		s-1.1-0.6-1.9-0.6h-11.6c-0.9,0-1.5,0.2-2,0.7c-0.4,0.4-0.7,1.1-0.7,1.9v8.8c0,0.8,0.2,1.5,0.7,1.9c0.4,0.4,1.1,0.7,2,0.7H121
		c0.9,0,1.5-0.2,2-0.7c0.4-0.4,0.6-1.1,0.6-1.9V59z"/>
	<path class="st0" d="M159.2,56.4h-14.6c-0.9,0-1.5,0.2-2,0.7c-0.4,0.4-0.7,1.1-0.7,1.9v17.9h-6.5V58.9c0-1.1,0.1-2.1,0.4-3
		c0.3-0.9,0.7-1.7,1.1-2.3c0.5-0.7,1-1.2,1.6-1.7c0.6-0.5,1.3-0.9,1.9-1.2c0.7-0.3,1.4-0.5,2-0.7c0.7-0.1,1.3-0.2,1.9-0.2h14.6V56.4
		z"/>
	<path class="st0" d="M187.9,56.4h-11.3v20.4H170V56.4h-8.4v-6.5h8.4v-8.8h6.5v8.8h11.3V56.4z"/>
	<path class="st0" d="M218.1,76.8h-17.6c-0.9,0-1.9-0.2-2.9-0.5c-1.1-0.3-2-0.8-3-1.6c-0.9-0.7-1.7-1.7-2.3-2.8
		c-0.6-1.2-0.9-2.6-0.9-4.2v-8.8c0-0.6,0.1-1.3,0.2-1.9c0.1-0.7,0.4-1.4,0.7-2c0.3-0.7,0.7-1.3,1.2-1.9c0.5-0.6,1-1.2,1.7-1.6
		c0.7-0.5,1.4-0.8,2.3-1.1c0.9-0.3,1.9-0.4,3-0.4h17.6v6.5h-17.6c-0.8,0-1.5,0.2-1.9,0.6c-0.4,0.4-0.7,1.1-0.7,2v8.7
		c0,0.8,0.2,1.5,0.7,1.9c0.4,0.4,1.1,0.7,2,0.7h17.5V76.8z"/>
	<path class="st0" d="M252.6,67.7c0,1.1-0.1,2.1-0.4,3c-0.3,0.9-0.7,1.7-1.1,2.3c-0.5,0.7-1,1.2-1.6,1.7c-0.6,0.5-1.3,0.9-1.9,1.2
		c-0.7,0.3-1.4,0.5-2,0.7c-0.7,0.1-1.3,0.2-2,0.2h-11.7c-0.9,0-1.9-0.2-2.9-0.5c-1.1-0.3-2-0.8-3-1.6c-0.9-0.7-1.7-1.7-2.3-2.8
		c-0.6-1.2-0.9-2.6-0.9-4.2v-8.8c0-1.7,0.3-3.1,0.9-4.2c0.6-1.2,1.4-2.1,2.3-2.8c0.9-0.7,1.9-1.2,3-1.6c1.1-0.3,2-0.5,2.9-0.5h11.7
		c1.7,0,3.1,0.3,4.2,0.9c1.2,0.6,2.1,1.3,2.8,2.3c0.7,0.9,1.2,1.9,1.6,3c0.3,1.1,0.5,2.1,0.5,3V67.7z M246.1,59c0-0.9-0.2-1.6-0.7-2
		s-1.1-0.6-1.9-0.6h-11.6c-0.9,0-1.5,0.2-2,0.7c-0.4,0.4-0.7,1.1-0.7,1.9v8.8c0,0.8,0.2,1.5,0.7,1.9c0.4,0.4,1.1,0.7,2,0.7h11.6
		c0.9,0,1.5-0.2,2-0.7c0.4-0.4,0.6-1.1,0.6-1.9V59z"/>
	<path class="st0" d="M287.6,67.7c0,1.1-0.1,2.1-0.4,3c-0.3,0.9-0.7,1.7-1.1,2.3c-0.5,0.7-1,1.2-1.6,1.7c-0.6,0.5-1.3,0.9-1.9,1.2
		c-0.7,0.3-1.4,0.5-2,0.7c-0.7,0.1-1.3,0.2-2,0.2h-11.7c-1.1,0-2.1-0.1-3-0.4c-0.9-0.3-1.7-0.7-2.3-1.1c-0.7-0.5-1.2-1-1.7-1.6
		c-0.5-0.6-0.9-1.3-1.2-1.9c-0.3-0.7-0.5-1.4-0.7-2c-0.1-0.7-0.2-1.3-0.2-1.9v-8.8c0-1.7,0.3-3.1,0.9-4.2c0.6-1.2,1.4-2.1,2.3-2.8
		c0.9-0.7,1.9-1.2,3-1.6c1.1-0.3,2-0.5,2.9-0.5h11.7v6.5h-11.6c-0.9,0-1.5,0.2-2,0.7c-0.4,0.4-0.7,1.1-0.7,1.9v8.7
		c0,0.9,0.2,1.5,0.7,2c0.4,0.4,1.1,0.7,1.9,0.7h11.7c0.9,0,1.5-0.2,2-0.7c0.4-0.4,0.6-1.1,0.6-1.9V38.5h6.5V67.7z"/>
	<path class="st0" d="M322.7,58.8c0,0.9-0.2,1.9-0.5,2.9c-0.3,1-0.8,2-1.5,2.9c-0.7,0.9-1.6,1.6-2.8,2.2s-2.5,0.9-4.1,0.9h-11.7
		v-6.2h11.7c0.9,0,1.6-0.3,2-0.8c0.5-0.5,0.7-1.2,0.7-2c0-0.8-0.3-1.5-0.8-2c-0.5-0.5-1.2-0.7-2-0.7h-11.7c-0.9,0-1.6,0.3-2,0.8
		c-0.5,0.5-0.7,1.2-0.7,2v9c0,0.9,0.3,1.5,0.8,2c0.5,0.5,1.2,0.7,2,0.7h11.6v6.2h-11.7c-0.9,0-1.9-0.2-2.9-0.5s-2-0.8-2.9-1.5
		c-0.9-0.7-1.6-1.6-2.2-2.8s-0.9-2.5-0.9-4.1v-9.1c0-0.9,0.2-1.9,0.5-2.9c0.3-1,0.8-2,1.5-2.9c0.7-0.9,1.6-1.6,2.8-2.2
		s2.5-0.9,4.1-0.9h11.7c0.9,0,1.9,0.2,2.9,0.5s2,0.8,2.9,1.5c0.9,0.7,1.6,1.6,2.2,2.8S322.7,57.2,322.7,58.8z"/>
	<path class="st0" d="M353.1,67.7c0,1.1-0.1,2.1-0.4,3c-0.3,0.9-0.7,1.7-1.1,2.3c-0.5,0.7-1,1.2-1.6,1.7c-0.6,0.5-1.3,0.9-1.9,1.2
		c-0.7,0.3-1.4,0.5-2,0.7c-0.7,0.1-1.3,0.2-2,0.2h-17.5v-6.5H344c0.9,0,1.5-0.2,2-0.7c0.4-0.4,0.7-1.1,0.7-1.9
		c-0.1-1.7-1-2.6-2.6-2.6h-10c-1.4,0-2.6-0.2-3.6-0.7s-1.8-1.1-2.4-1.9c-0.6-0.7-1.1-1.6-1.3-2.4c-0.3-0.9-0.4-1.7-0.4-2.4
		c0-1.4,0.3-2.7,0.8-3.6c0.5-1,1.2-1.8,1.9-2.4c0.8-0.6,1.6-1.1,2.5-1.3c0.9-0.3,1.8-0.4,2.6-0.4h15.9v6.5h-15.9
		c-0.3,0-0.6,0-0.8,0.1c-0.2,0.1-0.3,0.2-0.4,0.3c-0.1,0.1-0.1,0.3-0.2,0.4c0,0.1,0,0.3,0,0.4c0,0.3,0.1,0.5,0.1,0.6
		c0.1,0.1,0.2,0.3,0.3,0.3c0.1,0.1,0.3,0.1,0.4,0.1c0.2,0,0.3,0,0.5,0h10c1.7,0,3.1,0.3,4.2,0.9s2.1,1.3,2.8,2.3
		c0.7,0.9,1.2,1.9,1.6,3C353,65.8,353.1,66.8,353.1,67.7z"/>
	<path class="st1" d="M407.2,76.8h-23.4c-0.9,0-1.9-0.2-2.9-0.5s-2-0.8-3-1.6c-0.9-0.7-1.7-1.7-2.3-2.8c-0.6-1.2-0.9-2.6-0.9-4.2
		V44.4c0-0.4,0.1-0.9,0.2-1.3s0.4-0.7,0.7-1c0.3-0.3,0.6-0.5,1-0.7s0.8-0.2,1.3-0.2h29.2v6.5h-25.9v20.1c0,0.8,0.2,1.5,0.7,1.9
		c0.4,0.4,1.1,0.7,2,0.7h23.3V76.8z M404.3,62.2h-20.4v-6.5h20.4V62.2z"/>
	<path class="st1" d="M444.7,49.9c-0.7,2.3-1.6,4.5-2.6,6.7c-1,2.2-2.1,4.3-3.4,6.3c-1.3,2-2.7,3.9-4.3,5.6
		c-1.6,1.7-3.3,3.2-5.2,4.4s-4,2.2-6.2,2.9c-2.2,0.7-4.7,1.1-7.3,1.1c-0.4,0-0.9-0.1-1.3-0.2s-0.7-0.4-1-0.7s-0.5-0.6-0.7-1
		c-0.2-0.4-0.2-0.8-0.2-1.3V49.9h6.5v20.2c1.6,0,3.1-0.3,4.5-1c1.5-0.7,2.8-1.6,4.1-2.7c1.3-1.1,2.5-2.4,3.6-3.8
		c1.1-1.4,2.1-2.9,3-4.4c0.9-1.5,1.6-3,2.2-4.4c0.6-1.4,1.1-2.7,1.4-3.9H444.7z"/>
	<path class="st1" d="M476,58.8c0,0.9-0.2,1.9-0.5,2.9c-0.3,1-0.8,2-1.5,2.9c-0.7,0.9-1.6,1.6-2.8,2.2s-2.5,0.9-4.1,0.9h-11.7v-6.2
		h11.7c0.9,0,1.6-0.3,2-0.8c0.5-0.5,0.7-1.2,0.7-2c0-0.8-0.3-1.5-0.8-2c-0.5-0.5-1.2-0.7-2-0.7h-11.7c-0.9,0-1.6,0.3-2,0.8
		s-0.7,1.2-0.7,2v9c0,0.9,0.3,1.5,0.8,2c0.5,0.5,1.2,0.7,2,0.7h11.6v6.2h-11.7c-0.9,0-1.9-0.2-2.9-0.5s-2-0.8-2.9-1.5
		c-0.9-0.7-1.6-1.6-2.2-2.8s-0.9-2.5-0.9-4.1v-9.1c0-0.9,0.2-1.9,0.5-2.9s0.8-2,1.5-2.9c0.7-0.9,1.6-1.6,2.8-2.2s2.5-0.9,4.1-0.9
		h11.7c0.9,0,1.9,0.2,2.9,0.5s2,0.8,2.9,1.5c0.9,0.7,1.6,1.6,2.2,2.8S476,57.2,476,58.8z"/>
	<path class="st1" d="M503.9,56.4h-14.6c-0.9,0-1.5,0.2-2,0.7c-0.4,0.4-0.7,1.1-0.7,1.9v17.9h-6.5V58.9c0-1.1,0.1-2.1,0.4-3
		c0.3-0.9,0.7-1.7,1.1-2.3c0.5-0.7,1-1.2,1.6-1.7c0.6-0.5,1.3-0.9,1.9-1.2c0.7-0.3,1.4-0.5,2-0.7c0.7-0.1,1.3-0.2,1.9-0.2h14.6V56.4
		z"/>
	<path class="st1" d="M528.8,76.8h-11.7c-0.9,0-1.9-0.2-3-0.5s-2-0.8-3-1.6c-0.9-0.7-1.7-1.7-2.3-2.8c-0.6-1.2-0.9-2.6-0.9-4.2V49.9
		h6.5v17.8c0,0.8,0.2,1.5,0.7,1.9c0.4,0.4,1.1,0.7,2,0.7h11.6V76.8z M537.9,79.4c0,1.1-0.1,2.1-0.4,3c-0.3,0.9-0.7,1.7-1.1,2.3
		c-0.5,0.7-1,1.2-1.6,1.7c-0.6,0.5-1.3,0.9-1.9,1.2c-0.7,0.3-1.3,0.5-2,0.7c-0.7,0.1-1.3,0.2-1.9,0.2h-11.7V82h11.7
		c0.9,0,1.5-0.2,1.9-0.7s0.6-1.1,0.6-1.9V49.9h6.5V79.4z"/>
	<path class="st1" d="M588.4,49.9c-1,2.3-2.1,4.6-3.3,6.8s-2.4,4.3-3.7,6.3s-2.6,3.8-4,5.5c-1.4,1.7-2.7,3.1-4,4.4
		c-1.3,1.2-2.6,2.2-3.9,2.9c-1.3,0.7-2.5,1-3.6,1c-0.5,0-0.9-0.1-1.3-0.2s-0.7-0.4-1-0.7s-0.5-0.6-0.7-1s-0.2-0.8-0.2-1.3V61.5
		l-12.8,14.4c-0.3,0.3-0.7,0.6-1.1,0.7s-0.8,0.2-1.2,0.2c-0.4,0-0.9-0.1-1.3-0.2c-0.4-0.2-0.7-0.4-1-0.7s-0.5-0.6-0.7-1
		c-0.2-0.4-0.3-0.8-0.3-1.3V49.9h6.5v15.3l12.9-14.4c0.5-0.5,1-0.8,1.7-0.9c0.6-0.1,1.3-0.1,1.9,0.2c0.6,0.2,1.1,0.6,1.5,1.2
		c0.4,0.5,0.5,1.1,0.5,1.8v15.4c1.4-1.3,2.7-2.8,3.8-4.3s2.2-3,3.2-4.6c1-1.6,1.9-3.2,2.7-4.8c0.9-1.6,1.7-3.3,2.5-4.9H588.4z"/>
	<path class="st1" d="M597.2,76.8h-6.5V38.5h6.5V76.8z M620.5,76.8h-6.5V58.9c0-0.8-0.2-1.5-0.6-1.9c-0.4-0.4-1.1-0.7-1.9-0.7h-11.7
		v-6.5h11.7c0.6,0,1.3,0.1,1.9,0.2c0.7,0.1,1.4,0.4,2,0.7c0.7,0.3,1.3,0.7,1.9,1.2c0.6,0.5,1.2,1,1.6,1.7c0.5,0.7,0.8,1.4,1.1,2.3
		c0.3,0.9,0.4,1.9,0.4,3V76.8z"/>
	<path class="st1" d="M655.4,58.8c0,0.9-0.2,1.9-0.5,2.9c-0.3,1-0.8,2-1.5,2.9c-0.7,0.9-1.6,1.6-2.8,2.2s-2.5,0.9-4.1,0.9h-11.7
		v-6.2h11.7c0.9,0,1.6-0.3,2-0.8c0.5-0.5,0.7-1.2,0.7-2c0-0.8-0.3-1.5-0.8-2c-0.5-0.5-1.2-0.7-2-0.7h-11.7c-0.9,0-1.6,0.3-2,0.8
		s-0.7,1.2-0.7,2v9c0,0.9,0.3,1.5,0.8,2c0.5,0.5,1.2,0.7,2,0.7h11.6v6.2h-11.7c-0.9,0-1.9-0.2-2.9-0.5s-2-0.8-2.9-1.5
		c-0.9-0.7-1.6-1.6-2.2-2.8s-0.9-2.5-0.9-4.1v-9.1c0-0.9,0.2-1.9,0.5-2.9s0.8-2,1.5-2.9c0.7-0.9,1.6-1.6,2.8-2.2s2.5-0.9,4.1-0.9
		h11.7c0.9,0,1.9,0.2,2.9,0.5s2,0.8,2.9,1.5c0.9,0.7,1.6,1.6,2.2,2.8S655.4,57.2,655.4,58.8z"/>
	<path class="st1" d="M683.3,56.4h-14.6c-0.9,0-1.5,0.2-2,0.7c-0.4,0.4-0.7,1.1-0.7,1.9v17.9h-6.5V58.9c0-1.1,0.1-2.1,0.4-3
		c0.3-0.9,0.7-1.7,1.1-2.3c0.5-0.7,1-1.2,1.6-1.7c0.6-0.5,1.3-0.9,1.9-1.2c0.7-0.3,1.4-0.5,2-0.7c0.7-0.1,1.3-0.2,1.9-0.2h14.6V56.4
		z"/>
	<path class="st1" d="M716.5,58.8c0,0.9-0.2,1.9-0.5,2.9c-0.3,1-0.8,2-1.5,2.9c-0.7,0.9-1.6,1.6-2.8,2.2s-2.5,0.9-4.1,0.9h-11.7
		v-6.2h11.7c0.9,0,1.6-0.3,2-0.8c0.5-0.5,0.7-1.2,0.7-2c0-0.8-0.3-1.5-0.8-2c-0.5-0.5-1.2-0.7-2-0.7h-11.7c-0.9,0-1.6,0.3-2,0.8
		s-0.7,1.2-0.7,2v9c0,0.9,0.3,1.5,0.8,2c0.5,0.5,1.2,0.7,2,0.7h11.6v6.2h-11.7c-0.9,0-1.9-0.2-2.9-0.5s-2-0.8-2.9-1.5
		c-0.9-0.7-1.6-1.6-2.2-2.8s-0.9-2.5-0.9-4.1v-9.1c0-0.9,0.2-1.9,0.5-2.9s0.8-2,1.5-2.9c0.7-0.9,1.6-1.6,2.8-2.2s2.5-0.9,4.1-0.9
		h11.7c0.9,0,1.9,0.2,2.9,0.5s2,0.8,2.9,1.5c0.9,0.7,1.6,1.6,2.2,2.8S716.5,57.2,716.5,58.8z"/>
</g>
<g>
	<path class="st2" d="M61.1,122.3h9.8v2.5H64v4.2h5.9v2.5H64v4.8h7.2v2.5H61.1V122.3z"/>
	<path class="st2" d="M73.5,126.4h2.4l0.2,1.6h0.1c0.5-0.5,1.1-1,1.8-1.4c0.6-0.4,1.4-0.6,2.2-0.6c1.3,0,2.3,0.4,2.9,1.3
		c0.6,0.8,0.9,2,0.9,3.6v7.7h-2.9v-7.3c0-1-0.1-1.7-0.4-2.1c-0.3-0.4-0.8-0.6-1.5-0.6c-0.5,0-1,0.1-1.4,0.4
		c-0.4,0.3-0.9,0.6-1.4,1.1v8.6h-2.9V126.4z"/>
	<path class="st2" d="M86.2,135.4c0-1.3,0.6-2.3,1.7-3.1c1.1-0.7,3-1.2,5.5-1.5c0-0.3,0-0.6-0.1-0.9c-0.1-0.3-0.2-0.5-0.4-0.8
		c-0.2-0.2-0.4-0.4-0.7-0.5s-0.6-0.2-1-0.2c-0.6,0-1.2,0.1-1.8,0.4c-0.6,0.2-1.1,0.5-1.7,0.9l-1.1-1.9c0.7-0.4,1.4-0.8,2.3-1.1
		c0.8-0.3,1.8-0.5,2.7-0.5c1.5,0,2.7,0.5,3.4,1.4c0.8,0.9,1.1,2.2,1.1,3.9v7.3H94l-0.2-1.4h-0.1c-0.5,0.5-1.1,0.9-1.8,1.2
		s-1.3,0.5-2,0.5c-1.1,0-2-0.3-2.6-1C86.6,137.3,86.2,136.4,86.2,135.4z M89,135.1c0,0.5,0.2,0.9,0.5,1.2c0.3,0.2,0.7,0.4,1.3,0.4
		c0.5,0,1-0.1,1.4-0.3c0.4-0.2,0.9-0.6,1.3-1v-2.8c-0.8,0.1-1.5,0.2-2.1,0.4s-1,0.4-1.4,0.6c-0.3,0.2-0.6,0.4-0.7,0.7
		C89.1,134.5,89,134.8,89,135.1z"/>
	<path class="st2" d="M99.1,121h2.9v4.5l-0.1,2.1c0.5-0.5,1.1-0.8,1.7-1.1c0.6-0.3,1.2-0.4,1.9-0.4c0.8,0,1.5,0.1,2.1,0.4
		c0.6,0.3,1.1,0.7,1.5,1.2c0.4,0.5,0.7,1.2,1,2c0.2,0.8,0.3,1.6,0.3,2.6c0,1.1-0.1,2-0.4,2.8c-0.3,0.8-0.7,1.5-1.2,2.1
		c-0.5,0.6-1,1-1.7,1.3c-0.6,0.3-1.3,0.4-2,0.4c-0.6,0-1.1-0.1-1.7-0.4c-0.6-0.3-1.1-0.6-1.6-1.1h-0.1l-0.2,1.2h-2.3V121z
		 M102,135.5c0.4,0.4,0.9,0.6,1.3,0.8c0.4,0.1,0.8,0.2,1.2,0.2c0.8,0,1.5-0.4,2.1-1.1c0.5-0.7,0.8-1.8,0.8-3.2
		c0-1.2-0.2-2.2-0.6-2.9s-1.1-1-2-1c-0.9,0-1.8,0.5-2.7,1.4V135.5z"/>
	<path class="st2" d="M112.4,121h2.9v14.6c0,0.4,0.1,0.6,0.2,0.7c0.1,0.1,0.3,0.2,0.4,0.2c0.1,0,0.1,0,0.2,0c0.1,0,0.1,0,0.3-0.1
		l0.4,2.1c-0.4,0.2-0.9,0.2-1.5,0.2c-1,0-1.8-0.3-2.2-0.9c-0.4-0.6-0.6-1.5-0.6-2.5V121z"/>
	<path class="st2" d="M117.7,132.5c0-1,0.2-1.9,0.5-2.7c0.3-0.8,0.7-1.5,1.3-2c0.5-0.5,1.1-1,1.8-1.3c0.7-0.3,1.4-0.5,2.1-0.5
		c0.8,0,1.6,0.1,2.2,0.4c0.6,0.3,1.2,0.7,1.6,1.2c0.4,0.5,0.7,1.1,1,1.9c0.2,0.7,0.3,1.5,0.3,2.4c0,0.6,0,1-0.1,1.4h-7.8
		c0.1,1.1,0.5,2,1.2,2.6c0.6,0.6,1.5,0.9,2.5,0.9c0.5,0,1-0.1,1.5-0.2c0.5-0.2,0.9-0.4,1.4-0.7l1,1.8c-0.6,0.4-1.2,0.7-1.9,0.9
		c-0.7,0.2-1.5,0.4-2.2,0.4c-0.9,0-1.6-0.1-2.4-0.4c-0.7-0.3-1.4-0.7-1.9-1.3c-0.5-0.6-1-1.2-1.3-2
		C117.8,134.4,117.7,133.5,117.7,132.5z M125.9,131.4c0-1-0.2-1.8-0.6-2.3c-0.4-0.6-1-0.8-1.9-0.8c-0.7,0-1.4,0.3-1.9,0.8
		c-0.6,0.5-0.9,1.3-1,2.3H125.9z"/>
	<path class="st2" d="M134.4,135.4c0.5,0.4,1.1,0.8,1.6,1s1.1,0.4,1.8,0.4c0.7,0,1.2-0.1,1.5-0.4c0.3-0.3,0.5-0.6,0.5-1.1
		c0-0.2-0.1-0.5-0.2-0.7c-0.2-0.2-0.4-0.4-0.6-0.5s-0.5-0.3-0.9-0.4c-0.3-0.1-0.6-0.3-1-0.4c-0.4-0.1-0.8-0.3-1.2-0.5
		c-0.4-0.2-0.8-0.4-1.1-0.7c-0.3-0.3-0.6-0.6-0.8-1c-0.2-0.4-0.3-0.8-0.3-1.3c0-1.1,0.4-2,1.2-2.6c0.8-0.7,1.9-1,3.3-1
		c0.8,0,1.6,0.2,2.3,0.5c0.7,0.3,1.3,0.6,1.8,1l-1.3,1.8c-0.4-0.3-0.9-0.6-1.3-0.8c-0.4-0.2-0.9-0.3-1.4-0.3c-0.6,0-1.1,0.1-1.4,0.4
		c-0.3,0.3-0.4,0.6-0.4,1c0,0.2,0.1,0.5,0.2,0.6c0.1,0.2,0.3,0.3,0.6,0.5c0.2,0.1,0.5,0.3,0.8,0.4c0.3,0.1,0.6,0.2,1,0.4
		c0.4,0.1,0.8,0.3,1.2,0.5c0.4,0.2,0.8,0.4,1.1,0.7c0.3,0.3,0.6,0.6,0.8,1c0.2,0.4,0.3,0.9,0.3,1.5c0,0.5-0.1,1-0.3,1.5
		c-0.2,0.5-0.5,0.9-0.9,1.2c-0.4,0.3-0.9,0.6-1.5,0.8c-0.6,0.2-1.3,0.3-2,0.3c-0.9,0-1.7-0.2-2.5-0.5c-0.8-0.3-1.5-0.7-2.1-1.2
		L134.4,135.4z"/>
	<path class="st2" d="M144.3,121h2.9v4.5l-0.1,2.4c0.5-0.5,1.1-0.9,1.7-1.3s1.4-0.6,2.2-0.6c1.3,0,2.3,0.4,2.9,1.3
		c0.6,0.8,0.9,2,0.9,3.6v7.7h-2.9v-7.3c0-1-0.1-1.7-0.4-2.1c-0.3-0.4-0.8-0.6-1.5-0.6c-0.5,0-1,0.1-1.4,0.4
		c-0.4,0.3-0.9,0.6-1.4,1.1v8.6h-2.9V121z"/>
	<path class="st2" d="M156.7,132.5c0-1,0.2-1.9,0.5-2.7c0.3-0.8,0.7-1.5,1.3-2c0.5-0.5,1.2-1,1.9-1.3c0.7-0.3,1.4-0.4,2.2-0.4
		c0.8,0,1.5,0.1,2.2,0.4c0.7,0.3,1.3,0.7,1.9,1.3s1,1.2,1.3,2c0.3,0.8,0.5,1.7,0.5,2.7s-0.2,1.9-0.5,2.7c-0.3,0.8-0.8,1.5-1.3,2
		s-1.2,1-1.9,1.2c-0.7,0.3-1.4,0.4-2.2,0.4c-0.8,0-1.5-0.1-2.2-0.4c-0.7-0.3-1.3-0.7-1.9-1.2c-0.5-0.5-1-1.2-1.3-2
		C156.9,134.4,156.7,133.5,156.7,132.5z M159.7,132.5c0,1.2,0.3,2.2,0.8,3c0.5,0.7,1.2,1.1,2.1,1.1s1.6-0.4,2.1-1.1
		c0.5-0.7,0.8-1.7,0.8-3c0-1.2-0.3-2.2-0.8-3c-0.5-0.7-1.2-1.1-2.1-1.1s-1.6,0.4-2.1,1.1S159.7,131.3,159.7,132.5z"/>
	<path class="st2" d="M170.5,126.4h2.4l0.2,2.2h0.1c0.4-0.8,1-1.4,1.6-1.8c0.6-0.4,1.2-0.6,1.9-0.6c0.6,0,1,0.1,1.4,0.2l-0.5,2.5
		c-0.2-0.1-0.4-0.1-0.6-0.1c-0.2,0-0.4,0-0.7,0c-0.5,0-1,0.2-1.5,0.6c-0.5,0.4-1,1-1.4,2v7.5h-2.9V126.4z"/>
	<path class="st2" d="M179.5,128.6h-1.8v-2.1l1.9-0.1l0.4-3.4h2.4v3.4h3.1v2.3h-3.1v5.9c0,1.4,0.6,2.1,1.7,2.1c0.2,0,0.4,0,0.7-0.1
		c0.2,0,0.4-0.1,0.6-0.2l0.5,2.1c-0.3,0.1-0.7,0.2-1.1,0.3c-0.4,0.1-0.9,0.1-1.4,0.1c-0.7,0-1.3-0.1-1.8-0.3s-0.9-0.5-1.2-0.9
		c-0.3-0.4-0.5-0.9-0.7-1.4s-0.2-1.1-0.2-1.8V128.6z"/>
	<path class="st2" d="M186.3,132.5c0-1,0.2-1.9,0.5-2.7c0.3-0.8,0.8-1.5,1.4-2c0.6-0.5,1.2-1,2-1.3c0.7-0.3,1.5-0.4,2.3-0.4
		c0.8,0,1.5,0.1,2.1,0.4c0.6,0.3,1.1,0.6,1.5,1l-1.4,1.8c-0.3-0.3-0.7-0.5-1-0.7s-0.7-0.2-1.1-0.2c-1,0-1.8,0.4-2.4,1.1
		s-0.9,1.7-0.9,3c0,1.2,0.3,2.2,0.9,3c0.6,0.7,1.4,1.1,2.4,1.1c0.5,0,1-0.1,1.4-0.3c0.4-0.2,0.8-0.5,1.1-0.7l1.2,1.8
		c-0.6,0.5-1.2,0.9-1.9,1.2c-0.7,0.3-1.4,0.4-2.1,0.4c-0.8,0-1.6-0.1-2.3-0.4c-0.7-0.3-1.4-0.7-1.9-1.2c-0.5-0.5-1-1.2-1.2-2
		C186.5,134.4,186.3,133.5,186.3,132.5z"/>
	<path class="st2" d="M196.5,132.5c0-1,0.2-1.9,0.5-2.7c0.3-0.8,0.7-1.5,1.3-2c0.5-0.5,1.2-1,1.9-1.3c0.7-0.3,1.4-0.4,2.2-0.4
		c0.8,0,1.5,0.1,2.2,0.4c0.7,0.3,1.3,0.7,1.9,1.3s1,1.2,1.3,2c0.3,0.8,0.5,1.7,0.5,2.7s-0.2,1.9-0.5,2.7c-0.3,0.8-0.8,1.5-1.3,2
		s-1.2,1-1.9,1.2c-0.7,0.3-1.4,0.4-2.2,0.4c-0.8,0-1.5-0.1-2.2-0.4c-0.7-0.3-1.3-0.7-1.9-1.2c-0.5-0.5-1-1.2-1.3-2
		C196.7,134.4,196.5,133.5,196.5,132.5z M199.5,132.5c0,1.2,0.3,2.2,0.8,3c0.5,0.7,1.2,1.1,2.1,1.1s1.6-0.4,2.1-1.1
		c0.5-0.7,0.8-1.7,0.8-3c0-1.2-0.3-2.2-0.8-3c-0.5-0.7-1.2-1.1-2.1-1.1s-1.6,0.4-2.1,1.1S199.5,131.3,199.5,132.5z"/>
	<path class="st2" d="M209.5,132.5c0-1,0.1-1.9,0.4-2.7c0.3-0.8,0.7-1.5,1.2-2c0.5-0.5,1-1,1.7-1.3s1.3-0.5,1.9-0.5
		c0.7,0,1.3,0.1,1.8,0.4s1,0.6,1.5,1l-0.1-2V121h2.9v17.6h-2.4l-0.2-1.3h-0.1c-0.5,0.5-1,0.8-1.6,1.2s-1.2,0.5-1.9,0.5
		c-1.5,0-2.8-0.6-3.7-1.7C210,136.1,209.5,134.6,209.5,132.5z M212.5,132.5c0,1.3,0.2,2.3,0.7,3c0.5,0.7,1.2,1,2.1,1
		c0.9,0,1.8-0.5,2.6-1.4v-5.7c-0.4-0.4-0.9-0.7-1.3-0.8c-0.4-0.1-0.8-0.2-1.2-0.2c-0.8,0-1.5,0.4-2,1.1
		C212.8,130.2,212.5,131.2,212.5,132.5z"/>
	<path class="st2" d="M222.8,132.5c0-1,0.2-1.9,0.5-2.7c0.3-0.8,0.7-1.5,1.3-2c0.5-0.5,1.1-1,1.8-1.3c0.7-0.3,1.4-0.5,2.1-0.5
		c0.8,0,1.6,0.1,2.2,0.4c0.6,0.3,1.2,0.7,1.6,1.2c0.4,0.5,0.7,1.1,1,1.9c0.2,0.7,0.3,1.5,0.3,2.4c0,0.6,0,1-0.1,1.4h-7.8
		c0.1,1.1,0.5,2,1.2,2.6c0.6,0.6,1.5,0.9,2.5,0.9c0.5,0,1-0.1,1.5-0.2c0.5-0.2,0.9-0.4,1.4-0.7l1,1.8c-0.6,0.4-1.2,0.7-1.9,0.9
		c-0.7,0.2-1.5,0.4-2.2,0.4c-0.9,0-1.6-0.1-2.4-0.4c-0.7-0.3-1.4-0.7-1.9-1.3c-0.5-0.6-1-1.2-1.3-2
		C223,134.4,222.8,133.5,222.8,132.5z M231.1,131.4c0-1-0.2-1.8-0.6-2.3c-0.4-0.6-1-0.8-1.9-0.8c-0.7,0-1.4,0.3-1.9,0.8
		c-0.6,0.5-0.9,1.3-1,2.3H231.1z"/>
	<path class="st2" d="M235.7,135.4c0.5,0.4,1.1,0.8,1.6,1s1.1,0.4,1.8,0.4c0.7,0,1.2-0.1,1.5-0.4c0.3-0.3,0.5-0.6,0.5-1.1
		c0-0.2-0.1-0.5-0.2-0.7c-0.2-0.2-0.4-0.4-0.6-0.5s-0.5-0.3-0.9-0.4c-0.3-0.1-0.6-0.3-1-0.4c-0.4-0.1-0.8-0.3-1.2-0.5
		c-0.4-0.2-0.8-0.4-1.1-0.7c-0.3-0.3-0.6-0.6-0.8-1c-0.2-0.4-0.3-0.8-0.3-1.3c0-1.1,0.4-2,1.2-2.6c0.8-0.7,1.9-1,3.3-1
		c0.8,0,1.6,0.2,2.3,0.5c0.7,0.3,1.3,0.6,1.8,1l-1.3,1.8c-0.4-0.3-0.9-0.6-1.3-0.8c-0.4-0.2-0.9-0.3-1.4-0.3c-0.6,0-1.1,0.1-1.4,0.4
		c-0.3,0.3-0.4,0.6-0.4,1c0,0.2,0.1,0.5,0.2,0.6c0.1,0.2,0.3,0.3,0.6,0.5c0.2,0.1,0.5,0.3,0.8,0.4c0.3,0.1,0.6,0.2,1,0.4
		c0.4,0.1,0.8,0.3,1.2,0.5c0.4,0.2,0.8,0.4,1.1,0.7c0.3,0.3,0.6,0.6,0.8,1c0.2,0.4,0.3,0.9,0.3,1.5c0,0.5-0.1,1-0.3,1.5
		c-0.2,0.5-0.5,0.9-0.9,1.2c-0.4,0.3-0.9,0.6-1.5,0.8c-0.6,0.2-1.3,0.3-2,0.3c-0.9,0-1.7-0.2-2.5-0.5c-0.8-0.3-1.5-0.7-2.1-1.2
		L235.7,135.4z"/>
	<path class="st2" d="M250.9,124.2c-0.5,0-0.9-0.2-1.3-0.5c-0.3-0.3-0.5-0.7-0.5-1.2s0.2-0.9,0.5-1.2c0.3-0.3,0.8-0.5,1.3-0.5
		s0.9,0.2,1.3,0.5s0.5,0.7,0.5,1.2s-0.2,0.9-0.5,1.2S251.5,124.2,250.9,124.2z M249.5,126.4h2.9v12.3h-2.9V126.4z"/>
	<path class="st2" d="M255.3,126.4h2.4l0.2,1.6h0.1c0.5-0.5,1.1-1,1.8-1.4c0.6-0.4,1.4-0.6,2.2-0.6c1.3,0,2.3,0.4,2.9,1.3
		c0.6,0.8,0.9,2,0.9,3.6v7.7h-2.9v-7.3c0-1-0.1-1.7-0.4-2.1c-0.3-0.4-0.8-0.6-1.5-0.6c-0.5,0-1,0.1-1.4,0.4
		c-0.4,0.3-0.9,0.6-1.4,1.1v8.6h-2.9V126.4z"/>
	<path class="st2" d="M271.9,135.4c0-1.3,0.6-2.3,1.7-3.1c1.1-0.7,3-1.2,5.5-1.5c0-0.3,0-0.6-0.1-0.9c-0.1-0.3-0.2-0.5-0.4-0.8
		c-0.2-0.2-0.4-0.4-0.7-0.5s-0.6-0.2-1-0.2c-0.6,0-1.2,0.1-1.8,0.4c-0.6,0.2-1.1,0.5-1.7,0.9l-1.1-1.9c0.7-0.4,1.4-0.8,2.3-1.1
		c0.8-0.3,1.8-0.5,2.7-0.5c1.5,0,2.7,0.5,3.4,1.4c0.8,0.9,1.1,2.2,1.1,3.9v7.3h-2.4l-0.2-1.4h-0.1c-0.5,0.5-1.1,0.9-1.8,1.2
		s-1.3,0.5-2,0.5c-1.1,0-2-0.3-2.6-1C272.3,137.3,271.9,136.4,271.9,135.4z M274.7,135.1c0,0.5,0.2,0.9,0.5,1.2
		c0.3,0.2,0.7,0.4,1.3,0.4c0.5,0,1-0.1,1.4-0.3c0.4-0.2,0.9-0.6,1.3-1v-2.8c-0.8,0.1-1.5,0.2-2.1,0.4s-1,0.4-1.4,0.6
		c-0.3,0.2-0.6,0.4-0.7,0.7C274.8,134.5,274.7,134.8,274.7,135.1z"/>
	<path class="st2" d="M284.8,126.4h2.4l0.2,1.6h0.1c0.5-0.5,1.1-1,1.8-1.4c0.6-0.4,1.4-0.6,2.2-0.6c1.3,0,2.3,0.4,2.9,1.3
		c0.6,0.8,0.9,2,0.9,3.6v7.7h-2.9v-7.3c0-1-0.1-1.7-0.4-2.1c-0.3-0.4-0.8-0.6-1.5-0.6c-0.5,0-1,0.1-1.4,0.4
		c-0.4,0.3-0.9,0.6-1.4,1.1v8.6h-2.9V126.4z"/>
	<path class="st2" d="M298.2,141.3c0.2,0,0.3,0.1,0.5,0.1c0.6,0,1.2-0.2,1.6-0.6c0.4-0.4,0.7-0.9,0.9-1.5l0.2-0.8l-4.8-12.1h2.9
		l2.1,6c0.2,0.5,0.4,1.1,0.5,1.7c0.2,0.6,0.4,1.2,0.5,1.8h0.1c0.1-0.6,0.3-1.1,0.5-1.7c0.2-0.6,0.3-1.2,0.5-1.7l1.8-6h2.8l-4.5,12.8
		c-0.2,0.7-0.5,1.3-0.8,1.9c-0.3,0.6-0.6,1-1,1.4c-0.4,0.4-0.8,0.7-1.4,0.9c-0.5,0.2-1.1,0.3-1.8,0.3c-0.3,0-0.6,0-0.9-0.1
		c-0.2,0-0.5-0.1-0.7-0.2l0.5-2.2C297.9,141.2,298,141.3,298.2,141.3z"/>
	<path class="st2" d="M312.8,132.5c0-1,0.2-1.9,0.5-2.7c0.3-0.8,0.8-1.5,1.4-2c0.6-0.5,1.2-1,2-1.3c0.7-0.3,1.5-0.4,2.3-0.4
		c0.8,0,1.5,0.1,2.1,0.4c0.6,0.3,1.1,0.6,1.5,1l-1.4,1.8c-0.3-0.3-0.7-0.5-1-0.7s-0.7-0.2-1.1-0.2c-1,0-1.8,0.4-2.4,1.1
		s-0.9,1.7-0.9,3c0,1.2,0.3,2.2,0.9,3c0.6,0.7,1.4,1.1,2.4,1.1c0.5,0,1-0.1,1.4-0.3c0.4-0.2,0.8-0.5,1.1-0.7l1.2,1.8
		c-0.6,0.5-1.2,0.9-1.9,1.2c-0.7,0.3-1.4,0.4-2.1,0.4c-0.8,0-1.6-0.1-2.3-0.4c-0.7-0.3-1.4-0.7-1.9-1.2c-0.5-0.5-1-1.2-1.2-2
		C312.9,134.4,312.8,133.5,312.8,132.5z"/>
	<path class="st2" d="M323,132.5c0-1,0.2-1.9,0.5-2.7c0.3-0.8,0.7-1.5,1.3-2c0.5-0.5,1.2-1,1.9-1.3c0.7-0.3,1.4-0.4,2.2-0.4
		c0.8,0,1.5,0.1,2.2,0.4c0.7,0.3,1.3,0.7,1.9,1.3s1,1.2,1.3,2c0.3,0.8,0.5,1.7,0.5,2.7s-0.2,1.9-0.5,2.7c-0.3,0.8-0.8,1.5-1.3,2
		s-1.2,1-1.9,1.2c-0.7,0.3-1.4,0.4-2.2,0.4c-0.8,0-1.5-0.1-2.2-0.4c-0.7-0.3-1.3-0.7-1.9-1.2c-0.5-0.5-1-1.2-1.3-2
		C323.1,134.4,323,133.5,323,132.5z M325.9,132.5c0,1.2,0.3,2.2,0.8,3c0.5,0.7,1.2,1.1,2.1,1.1s1.6-0.4,2.1-1.1
		c0.5-0.7,0.8-1.7,0.8-3c0-1.2-0.3-2.2-0.8-3c-0.5-0.7-1.2-1.1-2.1-1.1s-1.6,0.4-2.1,1.1S325.9,131.3,325.9,132.5z"/>
	<path class="st2" d="M336.7,126.4h2.4l0.2,1.6h0.1c0.5-0.5,1.1-1,1.8-1.4c0.6-0.4,1.4-0.6,2.2-0.6c1.3,0,2.3,0.4,2.9,1.3
		c0.6,0.8,0.9,2,0.9,3.6v7.7h-2.9v-7.3c0-1-0.1-1.7-0.4-2.1c-0.3-0.4-0.8-0.6-1.5-0.6c-0.5,0-1,0.1-1.4,0.4
		c-0.4,0.3-0.9,0.6-1.4,1.1v8.6h-2.9V126.4z"/>
	<path class="st2" d="M350.4,128.6h-1.8v-2.1l1.9-0.1l0.4-3.4h2.4v3.4h3.1v2.3h-3.1v5.9c0,1.4,0.6,2.1,1.7,2.1c0.2,0,0.4,0,0.7-0.1
		c0.2,0,0.4-0.1,0.6-0.2l0.5,2.1c-0.3,0.1-0.7,0.2-1.1,0.3c-0.4,0.1-0.9,0.1-1.4,0.1c-0.7,0-1.3-0.1-1.8-0.3s-0.9-0.5-1.2-0.9
		c-0.3-0.4-0.5-0.9-0.7-1.4s-0.2-1.1-0.2-1.8V128.6z"/>
	<path class="st2" d="M357.2,132.5c0-1,0.2-1.9,0.5-2.7c0.3-0.8,0.7-1.5,1.3-2c0.5-0.5,1.1-1,1.8-1.3c0.7-0.3,1.4-0.5,2.1-0.5
		c0.8,0,1.6,0.1,2.2,0.4c0.6,0.3,1.2,0.7,1.6,1.2c0.4,0.5,0.7,1.1,1,1.9c0.2,0.7,0.3,1.5,0.3,2.4c0,0.6,0,1-0.1,1.4H360
		c0.1,1.1,0.5,2,1.2,2.6c0.6,0.6,1.5,0.9,2.5,0.9c0.5,0,1-0.1,1.5-0.2c0.5-0.2,0.9-0.4,1.4-0.7l1,1.8c-0.6,0.4-1.2,0.7-1.9,0.9
		c-0.7,0.2-1.5,0.4-2.2,0.4c-0.9,0-1.6-0.1-2.4-0.4c-0.7-0.3-1.4-0.7-1.9-1.3c-0.5-0.6-1-1.2-1.3-2
		C357.4,134.4,357.2,133.5,357.2,132.5z M365.4,131.4c0-1-0.2-1.8-0.6-2.3c-0.4-0.6-1-0.8-1.9-0.8c-0.7,0-1.4,0.3-1.9,0.8
		c-0.6,0.5-0.9,1.3-1,2.3H365.4z"/>
	<path class="st2" d="M372.1,132.2l-3.6-5.9h3.1l1.4,2.3c0.2,0.3,0.4,0.7,0.6,1c0.2,0.4,0.4,0.7,0.6,1h0.1c0.2-0.3,0.3-0.7,0.5-1
		c0.2-0.4,0.3-0.7,0.5-1l1.2-2.3h3l-3.6,6.2l3.9,6.1h-3.1l-1.5-2.4c-0.2-0.4-0.4-0.7-0.6-1.1c-0.2-0.4-0.4-0.7-0.6-1.1h-0.1
		c-0.2,0.4-0.4,0.7-0.5,1.1c-0.2,0.4-0.4,0.7-0.5,1.1l-1.3,2.4h-3L372.1,132.2z"/>
	<path class="st2" d="M381.3,128.6h-1.8v-2.1l1.9-0.1l0.3-3.4h2.4v3.4h3.1v2.3h-3.1v5.9c0,1.4,0.6,2.1,1.7,2.1c0.2,0,0.4,0,0.7-0.1
		c0.2,0,0.4-0.1,0.6-0.2l0.5,2.1c-0.3,0.1-0.7,0.2-1.1,0.3c-0.4,0.1-0.9,0.1-1.4,0.1c-0.7,0-1.3-0.1-1.8-0.3
		c-0.5-0.2-0.9-0.5-1.2-0.9c-0.3-0.4-0.5-0.9-0.7-1.4c-0.1-0.5-0.2-1.1-0.2-1.8V128.6z"/>
	<path class="st2" d="M392.3,132.5c0-1,0.2-1.9,0.5-2.7c0.3-0.8,0.7-1.5,1.3-2c0.5-0.5,1.2-1,1.9-1.3c0.7-0.3,1.4-0.4,2.2-0.4
		s1.5,0.1,2.2,0.4c0.7,0.3,1.3,0.7,1.9,1.3s1,1.2,1.3,2c0.3,0.8,0.5,1.7,0.5,2.7s-0.2,1.9-0.5,2.7c-0.3,0.8-0.8,1.5-1.3,2
		s-1.2,1-1.9,1.2c-0.7,0.3-1.4,0.4-2.2,0.4s-1.5-0.1-2.2-0.4c-0.7-0.3-1.3-0.7-1.9-1.2c-0.5-0.5-1-1.2-1.3-2
		C392.4,134.4,392.3,133.5,392.3,132.5z M395.2,132.5c0,1.2,0.3,2.2,0.8,3c0.5,0.7,1.2,1.1,2.1,1.1c0.9,0,1.6-0.4,2.1-1.1
		c0.5-0.7,0.8-1.7,0.8-3c0-1.2-0.3-2.2-0.8-3s-1.2-1.1-2.1-1.1c-0.9,0-1.6,0.4-2.1,1.1S395.2,131.3,395.2,132.5z"/>
	<path class="st2" d="M406.1,126.4h2.4l0.2,1.6h0.1c0.5-0.5,1.1-1,1.8-1.4c0.6-0.4,1.4-0.6,2.2-0.6c1.3,0,2.3,0.4,2.9,1.3
		c0.6,0.8,0.9,2,0.9,3.6v7.7h-2.9v-7.3c0-1-0.1-1.7-0.5-2.1c-0.3-0.4-0.8-0.6-1.5-0.6c-0.5,0-1,0.1-1.4,0.4
		c-0.4,0.3-0.9,0.6-1.4,1.1v8.6h-2.9V126.4z"/>
	<path class="st2" d="M423.4,141.3c0.2,0,0.3,0.1,0.5,0.1c0.6,0,1.2-0.2,1.6-0.6c0.4-0.4,0.7-0.9,0.9-1.5l0.2-0.8l-4.8-12.1h2.9
		l2.1,6c0.2,0.5,0.4,1.1,0.5,1.7c0.2,0.6,0.4,1.2,0.5,1.8h0.1c0.1-0.6,0.3-1.1,0.5-1.7c0.2-0.6,0.3-1.2,0.5-1.7l1.8-6h2.8l-4.5,12.8
		c-0.2,0.7-0.5,1.3-0.8,1.9c-0.3,0.6-0.6,1-1,1.4c-0.4,0.4-0.8,0.7-1.4,0.9c-0.5,0.2-1.1,0.3-1.8,0.3c-0.3,0-0.6,0-0.9-0.1
		c-0.2,0-0.5-0.1-0.7-0.2l0.5-2.2C423.1,141.2,423.2,141.3,423.4,141.3z"/>
	<path class="st2" d="M433.9,132.5c0-1,0.2-1.9,0.5-2.7c0.3-0.8,0.7-1.5,1.3-2c0.5-0.5,1.2-1,1.9-1.3c0.7-0.3,1.4-0.4,2.2-0.4
		s1.5,0.1,2.2,0.4c0.7,0.3,1.3,0.7,1.9,1.3s1,1.2,1.3,2c0.3,0.8,0.5,1.7,0.5,2.7s-0.2,1.9-0.5,2.7c-0.3,0.8-0.8,1.5-1.3,2
		s-1.2,1-1.9,1.2c-0.7,0.3-1.4,0.4-2.2,0.4s-1.5-0.1-2.2-0.4c-0.7-0.3-1.3-0.7-1.9-1.2c-0.5-0.5-1-1.2-1.3-2
		C434,134.4,433.9,133.5,433.9,132.5z M436.8,132.5c0,1.2,0.3,2.2,0.8,3c0.5,0.7,1.2,1.1,2.1,1.1c0.9,0,1.6-0.4,2.1-1.1
		c0.5-0.7,0.8-1.7,0.8-3c0-1.2-0.3-2.2-0.8-3s-1.2-1.1-2.1-1.1c-0.9,0-1.6,0.4-2.1,1.1S436.8,131.3,436.8,132.5z"/>
	<path class="st2" d="M447.5,126.4h2.9v7.3c0,1,0.1,1.7,0.5,2.2c0.3,0.4,0.8,0.6,1.4,0.6c0.5,0,1-0.1,1.4-0.4
		c0.4-0.3,0.8-0.7,1.3-1.3v-8.4h2.9v12.3h-2.4l-0.2-1.8h-0.1c-0.5,0.6-1.1,1.1-1.7,1.5s-1.4,0.6-2.2,0.6c-1.3,0-2.3-0.4-2.9-1.3
		c-0.6-0.8-0.9-2-0.9-3.6V126.4z"/>
	<path class="st2" d="M460.8,126.4h2.4l0.2,2.2h0.1c0.4-0.8,1-1.4,1.6-1.8c0.6-0.4,1.2-0.6,1.9-0.6c0.6,0,1.1,0.1,1.4,0.2l-0.5,2.5
		c-0.2-0.1-0.4-0.1-0.6-0.1c-0.2,0-0.4,0-0.7,0c-0.5,0-1,0.2-1.5,0.6c-0.5,0.4-1,1-1.4,2v7.5h-2.9V126.4z"/>
	<path class="st2" d="M472.7,130.5c0-1.3,0.2-2.5,0.6-3.6c0.4-1.1,0.9-2,1.6-2.7s1.5-1.3,2.4-1.7c0.9-0.4,1.9-0.6,3-0.6
		c1,0,1.9,0.2,2.7,0.6c0.8,0.4,1.4,0.9,2,1.4l-1.6,1.8c-0.4-0.4-0.9-0.7-1.3-1c-0.5-0.2-1-0.4-1.7-0.4c-0.7,0-1.3,0.1-1.9,0.4
		s-1,0.7-1.5,1.2c-0.4,0.5-0.7,1.1-1,1.9c-0.2,0.7-0.3,1.6-0.3,2.5c0,1.9,0.4,3.3,1.2,4.4c0.8,1.1,1.9,1.6,3.3,1.6
		c0.7,0,1.4-0.1,1.9-0.4c0.5-0.3,1-0.7,1.5-1.2l1.6,1.8c-0.7,0.8-1.4,1.4-2.3,1.8c-0.8,0.4-1.8,0.6-2.8,0.6c-1.1,0-2-0.2-2.9-0.5
		c-0.9-0.4-1.7-0.9-2.3-1.6c-0.7-0.7-1.2-1.6-1.6-2.6C472.9,133.1,472.7,131.9,472.7,130.5z"/>
	<path class="st2" d="M486.9,121h2.9v14.6c0,0.4,0.1,0.6,0.2,0.7c0.1,0.1,0.3,0.2,0.4,0.2c0.1,0,0.1,0,0.2,0c0.1,0,0.1,0,0.3-0.1
		l0.4,2.1c-0.4,0.2-0.9,0.2-1.5,0.2c-1,0-1.8-0.3-2.2-0.9c-0.4-0.6-0.6-1.5-0.6-2.5V121z"/>
	<path class="st2" d="M492.4,135.4c0-1.3,0.6-2.3,1.7-3.1c1.1-0.7,3-1.2,5.5-1.5c0-0.3,0-0.6-0.1-0.9c-0.1-0.3-0.2-0.5-0.4-0.8
		s-0.4-0.4-0.7-0.5c-0.3-0.1-0.6-0.2-1-0.2c-0.6,0-1.2,0.1-1.8,0.4s-1.1,0.5-1.7,0.9l-1-1.9c0.7-0.4,1.4-0.8,2.3-1.1
		c0.8-0.3,1.8-0.5,2.7-0.5c1.5,0,2.7,0.5,3.5,1.4c0.8,0.9,1.1,2.2,1.1,3.9v7.3h-2.4l-0.2-1.4h-0.1c-0.5,0.5-1.1,0.9-1.8,1.2
		s-1.3,0.5-2,0.5c-1.1,0-2-0.3-2.6-1C492.8,137.3,492.4,136.4,492.4,135.4z M495.2,135.1c0,0.5,0.2,0.9,0.5,1.2
		c0.3,0.2,0.7,0.4,1.3,0.4c0.5,0,1-0.1,1.4-0.3c0.4-0.2,0.9-0.6,1.3-1v-2.8c-0.8,0.1-1.5,0.2-2.1,0.4s-1,0.4-1.4,0.6
		s-0.6,0.4-0.7,0.7C495.3,134.5,495.2,134.8,495.2,135.1z"/>
	<path class="st2" d="M505.4,135.4c0.5,0.4,1.1,0.8,1.6,1c0.5,0.2,1.1,0.4,1.8,0.4c0.7,0,1.2-0.1,1.5-0.4c0.3-0.3,0.5-0.6,0.5-1.1
		c0-0.2-0.1-0.5-0.2-0.7c-0.2-0.2-0.4-0.4-0.6-0.5s-0.5-0.3-0.8-0.4s-0.6-0.3-1-0.4c-0.4-0.1-0.8-0.3-1.2-0.5
		c-0.4-0.2-0.8-0.4-1.1-0.7c-0.3-0.3-0.6-0.6-0.8-1c-0.2-0.4-0.3-0.8-0.3-1.3c0-1.1,0.4-2,1.2-2.6s1.9-1,3.3-1
		c0.8,0,1.6,0.2,2.3,0.5s1.3,0.6,1.8,1l-1.3,1.8c-0.4-0.3-0.9-0.6-1.3-0.8c-0.4-0.2-0.9-0.3-1.4-0.3c-0.6,0-1.1,0.1-1.4,0.4
		c-0.3,0.3-0.4,0.6-0.4,1c0,0.2,0.1,0.5,0.2,0.6c0.1,0.2,0.3,0.3,0.6,0.5c0.2,0.1,0.5,0.3,0.8,0.4c0.3,0.1,0.6,0.2,1,0.4
		c0.4,0.1,0.8,0.3,1.2,0.5c0.4,0.2,0.8,0.4,1.1,0.7c0.3,0.3,0.6,0.6,0.8,1c0.2,0.4,0.3,0.9,0.3,1.5c0,0.5-0.1,1-0.3,1.5
		c-0.2,0.5-0.5,0.9-0.9,1.2c-0.4,0.3-0.9,0.6-1.5,0.8c-0.6,0.2-1.3,0.3-2,0.3c-0.8,0-1.7-0.2-2.5-0.5s-1.5-0.7-2.1-1.2L505.4,135.4z
		"/>
	<path class="st2" d="M515.4,135.4c0.5,0.4,1.1,0.8,1.6,1c0.5,0.2,1.1,0.4,1.8,0.4c0.7,0,1.2-0.1,1.5-0.4c0.3-0.3,0.5-0.6,0.5-1.1
		c0-0.2-0.1-0.5-0.2-0.7c-0.2-0.2-0.4-0.4-0.6-0.5s-0.5-0.3-0.8-0.4s-0.6-0.3-1-0.4c-0.4-0.1-0.8-0.3-1.2-0.5
		c-0.4-0.2-0.8-0.4-1.1-0.7c-0.3-0.3-0.6-0.6-0.8-1c-0.2-0.4-0.3-0.8-0.3-1.3c0-1.1,0.4-2,1.2-2.6s1.9-1,3.3-1
		c0.8,0,1.6,0.2,2.3,0.5s1.3,0.6,1.8,1l-1.3,1.8c-0.4-0.3-0.9-0.6-1.3-0.8c-0.4-0.2-0.9-0.3-1.4-0.3c-0.6,0-1.1,0.1-1.4,0.4
		c-0.3,0.3-0.4,0.6-0.4,1c0,0.2,0.1,0.5,0.2,0.6c0.1,0.2,0.3,0.3,0.6,0.5c0.2,0.1,0.5,0.3,0.8,0.4c0.3,0.1,0.6,0.2,1,0.4
		c0.4,0.1,0.8,0.3,1.2,0.5c0.4,0.2,0.8,0.4,1.1,0.7c0.3,0.3,0.6,0.6,0.8,1c0.2,0.4,0.3,0.9,0.3,1.5c0,0.5-0.1,1-0.3,1.5
		c-0.2,0.5-0.5,0.9-0.9,1.2c-0.4,0.3-0.9,0.6-1.5,0.8c-0.6,0.2-1.3,0.3-2,0.3c-0.8,0-1.7-0.2-2.5-0.5s-1.5-0.7-2.1-1.2L515.4,135.4z
		"/>
	<path class="st2" d="M526.8,124.2c-0.5,0-0.9-0.2-1.3-0.5c-0.3-0.3-0.5-0.7-0.5-1.2s0.2-0.9,0.5-1.2c0.3-0.3,0.8-0.5,1.3-0.5
		c0.5,0,0.9,0.2,1.3,0.5s0.5,0.7,0.5,1.2s-0.2,0.9-0.5,1.2S527.3,124.2,526.8,124.2z M525.3,126.4h2.9v12.3h-2.9V126.4z"/>
	<path class="st2" d="M530.3,132.5c0-1,0.2-1.9,0.5-2.7c0.3-0.8,0.8-1.5,1.3-2s1.2-1,2-1.3c0.7-0.3,1.5-0.4,2.3-0.4
		c0.8,0,1.5,0.1,2.1,0.4c0.6,0.3,1.1,0.6,1.5,1l-1.4,1.8c-0.3-0.3-0.7-0.5-1-0.7c-0.3-0.2-0.7-0.2-1.1-0.2c-1,0-1.8,0.4-2.4,1.1
		c-0.6,0.7-0.9,1.7-0.9,3c0,1.2,0.3,2.2,0.9,3c0.6,0.7,1.4,1.1,2.4,1.1c0.5,0,1-0.1,1.4-0.3s0.8-0.5,1.1-0.7l1.2,1.8
		c-0.6,0.5-1.2,0.9-1.9,1.2c-0.7,0.3-1.4,0.4-2.1,0.4c-0.8,0-1.6-0.1-2.3-0.4c-0.7-0.3-1.4-0.7-1.9-1.2s-0.9-1.2-1.2-2
		C530.5,134.4,530.3,133.5,530.3,132.5z"/>
	<path class="st2" d="M542.2,122.3h5.5c0.9,0,1.7,0.1,2.5,0.2c0.8,0.2,1.4,0.5,2,0.9c0.5,0.4,1,0.9,1.3,1.6c0.3,0.6,0.5,1.4,0.5,2.4
		c0,0.9-0.2,1.7-0.5,2.3c-0.3,0.7-0.8,1.2-1.3,1.7c-0.6,0.4-1.2,0.8-2,1c-0.8,0.2-1.6,0.3-2.5,0.3h-2.6v6h-2.9V122.3z M547.5,130.3
		c2.4,0,3.6-1,3.6-3c0-1-0.3-1.7-0.9-2.1c-0.6-0.4-1.5-0.6-2.7-0.6h-2.4v5.7H547.5z"/>
	<path class="st2" d="M556,126.4h2.4l0.2,2.2h0.1c0.4-0.8,1-1.4,1.6-1.8c0.6-0.4,1.2-0.6,1.9-0.6c0.6,0,1.1,0.1,1.4,0.2l-0.5,2.5
		c-0.2-0.1-0.4-0.1-0.6-0.1c-0.2,0-0.4,0-0.7,0c-0.5,0-1,0.2-1.5,0.6c-0.5,0.4-1,1-1.4,2v7.5H556V126.4z"/>
	<path class="st2" d="M563.5,132.5c0-1,0.2-1.9,0.5-2.7c0.3-0.8,0.7-1.5,1.3-2c0.5-0.5,1.1-1,1.8-1.3c0.7-0.3,1.4-0.5,2.1-0.5
		c0.8,0,1.6,0.1,2.2,0.4c0.6,0.3,1.2,0.7,1.6,1.2c0.4,0.5,0.7,1.1,1,1.9c0.2,0.7,0.3,1.5,0.3,2.4c0,0.6,0,1-0.1,1.4h-7.8
		c0.1,1.1,0.5,2,1.2,2.6c0.6,0.6,1.5,0.9,2.5,0.9c0.5,0,1-0.1,1.5-0.2c0.5-0.2,0.9-0.4,1.4-0.7l1,1.8c-0.6,0.4-1.2,0.7-2,0.9
		c-0.7,0.2-1.5,0.4-2.2,0.4c-0.9,0-1.6-0.1-2.4-0.4c-0.7-0.3-1.4-0.7-1.9-1.3c-0.6-0.6-1-1.2-1.3-2
		C563.7,134.4,563.5,133.5,563.5,132.5z M571.7,131.4c0-1-0.2-1.8-0.6-2.3c-0.4-0.6-1-0.8-1.9-0.8c-0.7,0-1.4,0.3-1.9,0.8
		s-0.9,1.3-1,2.3H571.7z"/>
	<path class="st2" d="M576.4,135.4c0.5,0.4,1.1,0.8,1.6,1c0.5,0.2,1.1,0.4,1.8,0.4c0.7,0,1.2-0.1,1.5-0.4c0.3-0.3,0.5-0.6,0.5-1.1
		c0-0.2-0.1-0.5-0.2-0.7c-0.2-0.2-0.4-0.4-0.6-0.5s-0.5-0.3-0.8-0.4s-0.6-0.3-1-0.4c-0.4-0.1-0.8-0.3-1.2-0.5
		c-0.4-0.2-0.8-0.4-1.1-0.7c-0.3-0.3-0.6-0.6-0.8-1c-0.2-0.4-0.3-0.8-0.3-1.3c0-1.1,0.4-2,1.2-2.6s1.9-1,3.3-1
		c0.8,0,1.6,0.2,2.3,0.5s1.3,0.6,1.8,1l-1.3,1.8c-0.4-0.3-0.9-0.6-1.3-0.8c-0.4-0.2-0.9-0.3-1.4-0.3c-0.6,0-1.1,0.1-1.4,0.4
		c-0.3,0.3-0.4,0.6-0.4,1c0,0.2,0.1,0.5,0.2,0.6c0.1,0.2,0.3,0.3,0.6,0.5c0.2,0.1,0.5,0.3,0.8,0.4c0.3,0.1,0.6,0.2,1,0.4
		c0.4,0.1,0.8,0.3,1.2,0.5c0.4,0.2,0.8,0.4,1.1,0.7c0.3,0.3,0.6,0.6,0.8,1c0.2,0.4,0.3,0.9,0.3,1.5c0,0.5-0.1,1-0.3,1.5
		c-0.2,0.5-0.5,0.9-0.9,1.2c-0.4,0.3-0.9,0.6-1.5,0.8c-0.6,0.2-1.3,0.3-2,0.3c-0.8,0-1.7-0.2-2.5-0.5s-1.5-0.7-2.1-1.2L576.4,135.4z
		"/>
	<path class="st2" d="M586.4,135.4c0.5,0.4,1.1,0.8,1.6,1c0.5,0.2,1.1,0.4,1.8,0.4c0.7,0,1.2-0.1,1.5-0.4c0.3-0.3,0.5-0.6,0.5-1.1
		c0-0.2-0.1-0.5-0.2-0.7c-0.2-0.2-0.4-0.4-0.6-0.5s-0.5-0.3-0.8-0.4s-0.6-0.3-1-0.4c-0.4-0.1-0.8-0.3-1.2-0.5
		c-0.4-0.2-0.8-0.4-1.1-0.7c-0.3-0.3-0.6-0.6-0.8-1c-0.2-0.4-0.3-0.8-0.3-1.3c0-1.1,0.4-2,1.2-2.6s1.9-1,3.3-1
		c0.8,0,1.6,0.2,2.3,0.5s1.3,0.6,1.8,1l-1.3,1.8c-0.4-0.3-0.9-0.6-1.3-0.8c-0.4-0.2-0.9-0.3-1.4-0.3c-0.6,0-1.1,0.1-1.4,0.4
		c-0.3,0.3-0.4,0.6-0.4,1c0,0.2,0.1,0.5,0.2,0.6c0.1,0.2,0.3,0.3,0.6,0.5c0.2,0.1,0.5,0.3,0.8,0.4c0.3,0.1,0.6,0.2,1,0.4
		c0.4,0.1,0.8,0.3,1.2,0.5c0.4,0.2,0.8,0.4,1.1,0.7c0.3,0.3,0.6,0.6,0.8,1c0.2,0.4,0.3,0.9,0.3,1.5c0,0.5-0.1,1-0.3,1.5
		c-0.2,0.5-0.5,0.9-0.9,1.2c-0.4,0.3-0.9,0.6-1.5,0.8c-0.6,0.2-1.3,0.3-2,0.3c-0.8,0-1.7-0.2-2.5-0.5s-1.5-0.7-2.1-1.2L586.4,135.4z
		"/>
	<path class="st2" d="M599,126.4h2.9l1.5,6.4c0.1,0.6,0.2,1.2,0.3,1.8s0.2,1.2,0.3,1.8h0.1c0.1-0.6,0.2-1.2,0.4-1.8s0.3-1.2,0.4-1.8
		l1.6-6.4h2.6l1.6,6.4c0.2,0.6,0.3,1.2,0.4,1.8c0.1,0.6,0.3,1.2,0.4,1.8h0.1c0.1-0.6,0.2-1.2,0.3-1.8c0.1-0.6,0.2-1.2,0.3-1.8
		l1.5-6.4h2.7l-3.1,12.3h-3.4l-1.4-5.7c-0.1-0.6-0.3-1.2-0.4-1.7c-0.1-0.6-0.2-1.2-0.4-1.8h-0.1c-0.1,0.6-0.2,1.3-0.4,1.8
		c-0.1,0.6-0.2,1.2-0.4,1.8l-1.4,5.7h-3.3L599,126.4z"/>
	<path class="st2" d="M617.2,132.5c0-1,0.2-1.9,0.5-2.7c0.3-0.8,0.7-1.5,1.3-2c0.5-0.5,1.1-1,1.8-1.3c0.7-0.3,1.4-0.5,2.1-0.5
		c0.8,0,1.6,0.1,2.2,0.4c0.6,0.3,1.2,0.7,1.6,1.2c0.4,0.5,0.7,1.1,1,1.9c0.2,0.7,0.3,1.5,0.3,2.4c0,0.6,0,1-0.1,1.4H620
		c0.1,1.1,0.5,2,1.2,2.6c0.6,0.6,1.5,0.9,2.5,0.9c0.5,0,1-0.1,1.5-0.2c0.5-0.2,0.9-0.4,1.4-0.7l1,1.8c-0.6,0.4-1.2,0.7-2,0.9
		c-0.7,0.2-1.5,0.4-2.2,0.4c-0.9,0-1.6-0.1-2.4-0.4c-0.7-0.3-1.4-0.7-1.9-1.3c-0.6-0.6-1-1.2-1.3-2
		C617.4,134.4,617.2,133.5,617.2,132.5z M625.4,131.4c0-1-0.2-1.8-0.6-2.3c-0.4-0.6-1-0.8-1.9-0.8c-0.7,0-1.4,0.3-1.9,0.8
		s-0.9,1.3-1,2.3H625.4z"/>
	<path class="st2" d="M629.9,121h2.9v4.5l-0.1,2.1c0.5-0.5,1.1-0.8,1.7-1.1c0.6-0.3,1.2-0.4,1.9-0.4c0.8,0,1.5,0.1,2,0.4
		c0.6,0.3,1.1,0.7,1.5,1.2c0.4,0.5,0.7,1.2,1,2c0.2,0.8,0.3,1.6,0.3,2.6c0,1.1-0.1,2-0.4,2.8c-0.3,0.8-0.7,1.5-1.2,2.1
		c-0.5,0.6-1,1-1.7,1.3c-0.6,0.3-1.3,0.4-2,0.4c-0.6,0-1.1-0.1-1.7-0.4c-0.6-0.3-1.1-0.6-1.6-1.1h-0.1l-0.2,1.2h-2.3V121z
		 M632.8,135.5c0.4,0.4,0.9,0.6,1.3,0.8c0.4,0.1,0.8,0.2,1.2,0.2c0.8,0,1.5-0.4,2-1.1c0.6-0.7,0.8-1.8,0.8-3.2
		c0-1.2-0.2-2.2-0.6-2.9s-1.1-1-2-1c-0.9,0-1.8,0.5-2.7,1.4V135.5z"/>
	<path class="st2" d="M643.3,135.4c0.5,0.4,1.1,0.8,1.6,1c0.5,0.2,1.1,0.4,1.8,0.4c0.7,0,1.2-0.1,1.5-0.4c0.3-0.3,0.5-0.6,0.5-1.1
		c0-0.2-0.1-0.5-0.2-0.7c-0.2-0.2-0.4-0.4-0.6-0.5s-0.5-0.3-0.8-0.4s-0.6-0.3-1-0.4c-0.4-0.1-0.8-0.3-1.2-0.5
		c-0.4-0.2-0.8-0.4-1.1-0.7c-0.3-0.3-0.6-0.6-0.8-1c-0.2-0.4-0.3-0.8-0.3-1.3c0-1.1,0.4-2,1.2-2.6s1.9-1,3.3-1
		c0.8,0,1.6,0.2,2.3,0.5s1.3,0.6,1.8,1l-1.3,1.8c-0.4-0.3-0.9-0.6-1.3-0.8c-0.4-0.2-0.9-0.3-1.4-0.3c-0.6,0-1.1,0.1-1.4,0.4
		c-0.3,0.3-0.4,0.6-0.4,1c0,0.2,0.1,0.5,0.2,0.6c0.1,0.2,0.3,0.3,0.6,0.5c0.2,0.1,0.5,0.3,0.8,0.4c0.3,0.1,0.6,0.2,1,0.4
		c0.4,0.1,0.8,0.3,1.2,0.5c0.4,0.2,0.8,0.4,1.1,0.7c0.3,0.3,0.6,0.6,0.8,1c0.2,0.4,0.3,0.9,0.3,1.5c0,0.5-0.1,1-0.3,1.5
		c-0.2,0.5-0.5,0.9-0.9,1.2c-0.4,0.3-0.9,0.6-1.5,0.8c-0.6,0.2-1.3,0.3-2,0.3c-0.8,0-1.7-0.2-2.5-0.5s-1.5-0.7-2.1-1.2L643.3,135.4z
		"/>
	<path class="st2" d="M654.7,124.2c-0.5,0-0.9-0.2-1.3-0.5c-0.3-0.3-0.5-0.7-0.5-1.2s0.2-0.9,0.5-1.2c0.3-0.3,0.8-0.5,1.3-0.5
		c0.5,0,0.9,0.2,1.3,0.5s0.5,0.7,0.5,1.2s-0.2,0.9-0.5,1.2S655.2,124.2,654.7,124.2z M653.2,126.4h2.9v12.3h-2.9V126.4z"/>
	<path class="st2" d="M659.4,128.6h-1.8v-2.1l1.9-0.1l0.3-3.4h2.4v3.4h3.1v2.3h-3.1v5.9c0,1.4,0.6,2.1,1.7,2.1c0.2,0,0.4,0,0.7-0.1
		c0.2,0,0.4-0.1,0.6-0.2l0.5,2.1c-0.3,0.1-0.7,0.2-1.1,0.3c-0.4,0.1-0.9,0.1-1.4,0.1c-0.7,0-1.3-0.1-1.8-0.3
		c-0.5-0.2-0.9-0.5-1.2-0.9c-0.3-0.4-0.5-0.9-0.7-1.4c-0.1-0.5-0.2-1.1-0.2-1.8V128.6z"/>
	<path class="st2" d="M666.2,132.5c0-1,0.2-1.9,0.5-2.7c0.3-0.8,0.7-1.5,1.3-2c0.5-0.5,1.1-1,1.8-1.3c0.7-0.3,1.4-0.5,2.1-0.5
		c0.8,0,1.6,0.1,2.2,0.4c0.6,0.3,1.2,0.7,1.6,1.2c0.4,0.5,0.7,1.1,1,1.9c0.2,0.7,0.3,1.5,0.3,2.4c0,0.6,0,1-0.1,1.4H669
		c0.1,1.1,0.5,2,1.2,2.6c0.6,0.6,1.5,0.9,2.5,0.9c0.5,0,1-0.1,1.5-0.2c0.5-0.2,0.9-0.4,1.4-0.7l1,1.8c-0.6,0.4-1.2,0.7-2,0.9
		c-0.7,0.2-1.5,0.4-2.2,0.4c-0.9,0-1.6-0.1-2.4-0.4c-0.7-0.3-1.4-0.7-1.9-1.3c-0.6-0.6-1-1.2-1.3-2
		C666.4,134.4,666.2,133.5,666.2,132.5z M674.5,131.4c0-1-0.2-1.8-0.6-2.3c-0.4-0.6-1-0.8-1.9-0.8c-0.7,0-1.4,0.3-1.9,0.8
		s-0.9,1.3-1,2.3H674.5z"/>
	<path class="st2" d="M679.2,137c0-0.6,0.2-1,0.5-1.4s0.8-0.6,1.3-0.6c0.5,0,1,0.2,1.3,0.6c0.3,0.4,0.5,0.8,0.5,1.4
		c0,0.6-0.2,1-0.5,1.4c-0.4,0.4-0.8,0.5-1.3,0.5c-0.5,0-1-0.2-1.3-0.5S679.2,137.6,679.2,137z M679.7,124.8l-0.1-2.9h2.9l-0.1,2.9
		l-0.4,8.5h-1.9L679.7,124.8z"/>
</g>
</svg>
